<svg version="1.2" xmlns="http://www.w3.org/2000/svg" viewBox="0 0 260 260" width="260" height="260"><style></style><path  d="m20.8 241.3c17-17.3 33.9-34.4 50.8-51.6 4.2-4.2 8.4-8.6 12.6-12.8 1.1-1.1 1.5-2.1 1.2-3.7-3.1-15.3-2.6-30.9-2.5-46.3 0-4.3 0.1-8.5 0-12.8 0-1.6 0.5-2.8 1.6-4 8.9-8.9 17.7-17.8 26.5-26.8 0.8-0.8 1.5-1.2 2.6-1.1 13.1 0 26.2 0.1 39.3 0.1 1.2 0.1 2.2-0.3 3.1-1.2q10.9-11.3 22-22.6c1.4-1.4 1.4-2.4-0.1-3.8-8.8-8-8.8-8.1-20.7-8.1-15.7 0-31.5 0.2-47.2-0.1-9.6-0.2-17.2 3-23.8 9.9-10.3 10.8-21 21.2-31.5 31.8-5.4 5.4-7.5 12.1-7.5 19.5q0 36 0 72c0 1.9-0.5 3.3-1.8 4.7-12.6 12.8-25.2 25.6-37.8 38.5-0.3 0.4-0.6 0.8-1.3 0.8-0.8-0.7-0.4-1.7-0.4-2.6-0.1-46.6 0-93.3-0.1-140 0-1.5 0.5-2.6 1.6-3.7q35.1-35.4 70.2-70.8c1.1-1.2 2.4-1.3 3.8-1.3q64.2 0 128.5 0.1 21 0 42 0c0.9 0 2-0.3 3.2 0.5-44.7 45.7-89.3 91.4-133.9 137 1.1 1.4 2.1 1 3.1 1q24.1 0 48.2 0c3.5 0 3.3 0 3.5 3.5 0.3 3.8-0.8 6.7-3.6 9.4-7.7 7.2-15 14.8-22.3 22.2-1.2 1.2-2.4 1.6-4 1.6-12.4 0-24.8 0-37.2 0-1.8 0-2.9 0.6-4.1 1.8-6.9 7.3-13.9 14.4-20.9 21.6-2 2.1-2 2.5 0.3 4.6q0.1 0 0.2 0.1c8.7 7.6 8.7 7.6 22.5 7.1 8.5-0.4 17 0.3 25.5 0 7.9-0.3 15.8 0.4 23.7-0.3 5.7-0.5 10.7-2.8 14.7-6.8 11.8-11.7 23.7-23.4 35.3-35.4 4.1-4.2 6.1-9.6 6.2-15.6 0.1-7.6 0-15.2 0.1-22.8 0-2.2-0.8-2.8-2.9-2.8-12.5 0.1-25 0-37.5 0-1.1 0-2.2 0.3-3.2-0.3-0.1-1.2 0.9-1.7 1.5-2.3 20-20 40-40.1 59.9-60.2 1.6-1.6 2.5-1.4 4 0.1 5.9 6.1 12 12.1 18 18 1 1 1.4 2 1.4 3.3q0 45.5 0 91c0 2-0.7 3.3-2.1 4.6q-34.2 34.3-68.3 68.8c-1.4 1.4-2.9 1.6-4.7 1.6q-77.2 0-154.3 0-7.5 0-15 0c-0.9 0-1.8 0.2-3-0.5 4.6-5.3 9.8-9.8 14.6-14.9z"/></svg>